<?xml version="1.0" encoding="UTF-8" standalone="no"?>
<svg
   fill="currentColor"
   class="bi bi-bucket"
   viewBox="0 0 14 11"
   version="1.1"
   id="svg4"
   xmlns="http://www.w3.org/2000/svg"
   xmlns:svg="http://www.w3.org/2000/svg">
  <defs
     id="defs8" />
  <path
     d="M 1,0 C 0.6945845,3.015e-4 0.4607983,0.2719478 0.506,0.574 L 1.878,9.723 C 1.988281,10.456559 2.6181979,10.999342 3.36,11 h 7.278 c 0.742181,-1.64e-4 1.372662,-0.543066 1.483,-1.277 L 13.494,0.574 C 13.539202,0.2719478 13.305415,3.015e-4 13,0 1.0935765,0.027472 12.97495,0.0141633 1,0 Z M 12.419,1 11.133,9.574 C 11.096388,9.818652 10.886376,9.999756 10.639,10 H 3.36 C 3.1126238,9.999756 2.9026116,9.818652 2.866,9.574 L 1.58,1 h 10.838 z"
     id="path2" />
</svg>
