<?xml version="1.0" encoding="UTF-8" standalone="no"?>
<svg
   fill="currentColor"
   class="bi bi-moisture"
   viewBox="0 0 14 16"
   version="1.1"
   id="svg4"
   sodipodi:docname="moisture.svg"
   inkscape:export-filename="moisture.svg"
   inkscape:export-xdpi="3072"
   inkscape:export-ydpi="3072"
   xmlns:inkscape="http://www.inkscape.org/namespaces/inkscape"
   xmlns:sodipodi="http://sodipodi.sourceforge.net/DTD/sodipodi-0.dtd"
   xmlns="http://www.w3.org/2000/svg"
   xmlns:svg="http://www.w3.org/2000/svg">
  <sodipodi:namedview
     id="namedview7"
     pagecolor="#ffffff"
     bordercolor="#000000"
     borderopacity="0.25"
     inkscape:showpageshadow="2"
     inkscape:pageopacity="0.0"
     inkscape:pagecheckerboard="0"
     inkscape:deskcolor="#d1d1d1"
     showgrid="false" />
  <defs
     id="defs8">
    <clipPath
       clipPathUnits="userSpaceOnUse"
       id="clipPath652">
      <path
         id="path654"
         style="fill:#ff0000;fill-opacity:1;fill-rule:nonzero;stroke:none"
         d="M 2,0 V 16 H 16 V 0 Z m 4.6816406,5.8828125 c 0.018243,-2.666e-4 0.036443,-1.51e-4 0.054687,0 0.052496,4.4e-4 0.071604,0.0023 0.125,0.00586 0.1848717,0.018442 0.3695691,0.045036 0.5527344,0.076172 0.2028228,0.03391 0.4044252,0.067913 0.6054687,0.1113281 0.048842,0.010481 0.09757,0.022505 0.1464844,0.033203 0.029889,-0.00278 0.059661,-0.00376 0.089844,-0.00586 0.074204,-2.8e-4 0.094003,-0.00228 0.1640625,0.00391 0.036461,0.00322 0.080576,0.00949 0.1152343,0.023437 0.00408,0.00165 0.00785,0.00376 0.011719,0.00586 0.033995,0.018432 0.011043,0.048756 -0.023437,0.03125 -0.017826,-0.00905 -0.039153,-0.012645 -0.058594,-0.015625 -0.017019,-0.00261 -0.033628,-0.00437 -0.050781,-0.00586 -0.047274,-0.00409 -0.075427,-0.00412 -0.109375,-0.00391 0.1377261,0.031056 0.2759927,0.059963 0.4121094,0.095703 0.1386565,0.037973 0.2774421,0.076069 0.4121093,0.1269532 0.084649,0.031984 0.1718442,0.069077 0.25,0.1152344 0.036401,0.021498 0.070425,0.04862 0.1054688,0.072266 0.064445,0.061553 0.103818,0.085542 0.140625,0.1679687 0.044005,0.098566 0.030024,0.2102923 -0.00586,0.3085938 -0.014937,0.040921 -0.036348,0.077673 -0.054687,0.1171875 -0.080312,0.1190223 -0.09053,0.1453701 -0.1972656,0.25 -0.1448571,0.1419996 -0.3154409,0.2562058 -0.5,0.3398437 C 8.7980028,7.7676799 8.72514,7.7909569 8.6542972,7.8183589 8.4501796,7.8729537 8.3961927,7.8967348 8.1835938,7.9179688 8.0148531,7.9348188 7.8558004,7.9335144 7.6875,7.9121094 7.4714612,7.884633 7.4123642,7.8570074 7.2050781,7.7949219 7.1312182,7.7639279 7.0565075,7.7359964 6.984375,7.7011719 6.7958907,7.6101733 6.6101033,7.4901823 6.4707031,7.3320312 6.3670679,7.2144569 6.3614714,7.1776828 6.2949219,7.0410156 6.2815879,6.9913623 6.2626662,6.9432381 6.2539062,6.8925781 c -0.032036,-0.1851979 0.00764,-0.3733813 0.078125,-0.5449219 0.015892,-0.038679 0.034974,-0.077377 0.052734,-0.1152343 0.018839,-0.033672 0.036788,-0.066525 0.056641,-0.099609 0.028732,-0.047881 0.06733,-0.1065211 0.1035157,-0.1503906 0.02108,-0.025556 0.045494,-0.046558 0.070312,-0.068359 0.029054,-0.02552 0.054392,0.00372 0.025391,0.029297 -0.023481,0.020711 -0.048433,0.042143 -0.068359,0.066406 -0.033704,0.041041 -0.071186,0.1003303 -0.097656,0.1445313 -0.019389,0.032377 -0.038238,0.064709 -0.056641,0.097656 -0.017336,0.03703 -0.035278,0.073495 -0.050781,0.1113281 -0.067771,0.1653859 -0.1058078,0.3489148 -0.074219,0.5273438 0.00854,0.04824 0.026143,0.093369 0.039062,0.140625 0.064259,0.1304967 0.07022,0.165032 0.1699219,0.2773438 0.1361686,0.1533899 0.3165251,0.2710554 0.5,0.359375 0.070915,0.034136 0.1461489,0.061412 0.21875,0.091797 0.2038409,0.060855 0.2621969,0.086469 0.4746094,0.1132813 0.1652888,0.020864 0.3226,0.022574 0.4882813,0.00586 C 8.3925564,7.857817 8.4439493,7.8351022 8.6445312,7.78125 8.7140414,7.7542832 8.783685,7.7320171 8.8515625,7.7011719 9.0319032,7.61922 9.2003803,7.5062101 9.3417969,7.3671875 9.4451941,7.2655406 9.4538133,7.2403955 9.53125,7.125 9.548569,7.087297 9.569918,7.050753 9.583984,7.0117188 9.616369,6.9218548 9.627838,6.8199653 9.585934,6.7304688 9.552152,6.6582988 9.514681,6.6340718 9.4570277,6.5800781 9.4236727,6.5577831 9.3920377,6.5339481 9.3574187,6.5136721 9.2809961,6.4689051 9.1959342,6.4315396 9.1132812,6.4003906 8.9800888,6.3501942 8.8421784,6.3148783 8.7050781,6.2773438 8.5246532,6.229983 8.3423174,6.1904917 8.1601562,6.1503906 c -0.00194,1.979e-4 -0.00391,-2.099e-4 -0.00586,0 -0.1494645,0.016106 -0.3006574,0.050565 -0.4335938,0.1230469 -0.031567,0.01721 -0.05953,0.039262 -0.089844,0.058594 -0.026041,0.023014 -0.054261,0.043095 -0.078125,0.068359 -0.049582,0.052495 -0.087279,0.1092453 -0.1152344,0.1757813 -0.014205,0.03381 -0.025803,0.06955 -0.033203,0.1054687 -0.019627,0.095324 -0.010478,0.1403022 -0.00391,0.2363282 0.00868,0.037383 0.013681,0.074781 0.025391,0.1113281 0.029593,0.092365 0.082128,0.1859651 0.1621094,0.2441406 0.063472,0.046168 0.087437,0.043941 0.1621094,0.060547 0.030711,-0.001 0.061385,4.911e-4 0.091797,-0.00391 C 7.9416788,7.3156424 8.0377253,7.2684974 8.1093709,7.1972619 8.1796169,7.1274179 8.1897249,7.0930373 8.236324,7.0058557 8.249908,6.9666797 8.266434,6.9286717 8.27734,6.8886682 8.2984067,6.811447 8.31025,6.7245252 8.3125,6.6445312 8.31506,6.5537382 8.30621,6.5192452 8.294922,6.4316406 c -0.00494,-0.038356 0.034192,-0.04226 0.039063,-0.00391 0.011588,0.091225 0.020448,0.1261265 0.017578,0.2207031 -0.00252,0.083155 -0.014936,0.1717455 -0.037109,0.2519531 -0.011595,0.041942 -0.030509,0.081988 -0.044922,0.1230469 -0.050459,0.093081 -0.06063,0.1307295 -0.1367187,0.2050781 -0.07804,0.076256 -0.1809234,0.12631 -0.2890625,0.140625 -0.03369,0.00446 -0.069539,0.00128 -0.1035156,0.00195 C 7.6562515,7.3510628 7.6314855,7.3536272 7.5605469,7.3007812 7.47521,7.2372103 7.4201285,7.1387261 7.3886719,7.0390625 7.3764969,7.0004895 7.3703081,6.9593614 7.3613281,6.9199219 c -0.00662,-0.1035778 -0.015945,-0.147072 0.00586,-0.25 0.00805,-0.038016 0.0199,-0.075589 0.035156,-0.1113281 0.030297,-0.070977 0.069778,-0.1316344 0.1230468,-0.1875 0.025374,-0.026611 0.056325,-0.048038 0.083984,-0.072266 0.031849,-0.020169 0.062561,-0.042583 0.095703,-0.060547 C 7.812748,6.1799213 7.931975,6.1452368 8.0527344,6.125 8.0389964,6.12203 8.0254607,6.1181844 8.0117188,6.1152344 7.8112574,6.07195 7.6104387,6.0357641 7.4082031,6.0019531 7.2258878,5.9709706 7.0414364,5.9460774 6.8574219,5.9277344 6.805167,5.9242744 6.7856935,5.9222741 6.734375,5.921875 c -0.017673,-1.374e-4 -0.035063,-2.707e-4 -0.052734,0 -0.038665,5.92e-4 -0.038663,-0.038497 -4e-7,-0.039063 z M 4.4746094,6.0117188 c 0.025843,-0.00565 0.035531,0.022799 0.00586,0.039062 -0.023439,0.012847 -0.046744,0.025169 -0.068359,0.041016 -0.038586,0.028983 -0.073311,0.059835 -0.1035156,0.097656 -5.888e-4,7.372e-4 -0.00137,0.00121 -0.00195,0.00195 -0.010965,0.016218 -0.023713,0.03119 -0.033203,0.048828 -0.021237,0.041137 -0.039849,0.08386 -0.056641,0.1269531 -0.018596,0.046114 -0.034799,0.093543 -0.050781,0.140625 -0.016766,0.051086 -0.036829,0.1004389 -0.056641,0.1503906 -0.019364,0.050166 -0.041322,0.099915 -0.064453,0.1484375 -0.023056,0.050751 -0.049507,0.099496 -0.076172,0.1484375 -0.037958,0.065577 -0.076563,0.1309737 -0.1132812,0.1972657 -0.032649,0.062491 -0.061175,0.1279187 -0.082031,0.1953124 -0.00332,0.010721 -0.00476,0.020451 -0.00781,0.03125 -0.00712,0.025612 -0.012455,0.051812 -0.015625,0.078125 -0.00462,0.038392 -0.041809,0.034481 -0.037109,-0.00391 0.00347,-0.028312 0.00598,-0.056429 0.013672,-0.083984 0.00323,-0.011375 0.00627,-0.023862 0.00977,-0.035156 7.891e-4,-0.00254 0.00115,-0.00528 0.00195,-0.00781 -0.011145,0.0145 -0.033345,0.00752 -0.033203,-0.021484 9.4e-5,-0.019156 0.00583,-0.036681 0.011719,-0.054687 0.00745,-0.022657 0.014928,-0.046082 0.023437,-0.068359 0.012098,-0.031402 0.028748,-0.06133 0.042969,-0.091797 0.015637,-0.032967 0.030557,-0.065022 0.046875,-0.097656 0.016547,-0.032958 0.033006,-0.066303 0.048828,-0.099609 0.017438,-0.036244 0.03174,-0.074084 0.046875,-0.1113281 0.016249,-0.037734 0.035315,-0.074128 0.052734,-0.1113281 0.018605,-0.039048 0.037393,-0.076503 0.056641,-0.1152344 0.017006,-0.035258 0.03456,-0.070793 0.052734,-0.1054687 0.018529,-0.033372 0.040177,-0.065394 0.060547,-0.097656 0.019762,-0.029991 0.038495,-0.060076 0.058594,-0.089844 0.016593,-0.024146 0.03469,-0.048622 0.052734,-0.072266 0.0051,-0.00831 0.012004,-0.015467 0.017578,-0.023437 5.866e-4,-7.096e-4 0.00137,-0.00125 0.00195,-0.00195 0.00999,-0.014099 0.017153,-0.030157 0.029297,-0.042969 0.019164,-0.021686 0.039943,-0.044237 0.0625,-0.0625 0.00751,-0.00608 0.013415,-0.00953 0.019531,-0.00977 0.00423,-1.653e-4 0.00492,0.00397 0.00781,0.00586 0.020609,-0.014091 0.042764,-0.027155 0.064453,-0.039063 0.00424,-0.00233 0.00803,-0.0031 0.011719,-0.00391 z M 4.1679688,6.390625 c -0.015395,0.025086 -0.030562,0.050429 -0.044922,0.076172 -0.018056,0.034419 -0.035829,0.068523 -0.052734,0.1035156 -0.019114,0.038459 -0.038152,0.076467 -0.056641,0.1152344 -0.017132,0.036588 -0.034742,0.074241 -0.050781,0.1113281 -0.015417,0.037939 -0.031065,0.076361 -0.048828,0.1132812 -0.015936,0.033543 -0.032159,0.066419 -0.048828,0.099609 -0.016162,0.03232 -0.031386,0.065007 -0.046875,0.097656 -0.013826,0.029621 -0.029218,0.059329 -0.041016,0.089844 -0.00829,0.021684 -0.016188,0.042398 -0.023438,0.064453 -0.00461,0.014074 -0.00945,0.027997 -0.00977,0.042969 -1.522e-4,0.00725 -0.00161,0.013047 -0.00391,0.017578 0.021122,-0.065436 0.048183,-0.1285209 0.080078,-0.1894531 0.036677,-0.066203 0.077254,-0.1298528 0.1152344,-0.1953125 0.026338,-0.048318 0.051452,-0.098329 0.074219,-0.1484375 0.022758,-0.047729 0.043459,-0.095179 0.0625,-0.1445313 0.019571,-0.049343 0.040083,-0.099925 0.056641,-0.1503906 0.011919,-0.035082 0.025644,-0.069185 0.039063,-0.1035156 z" />
    </clipPath>
  </defs>
  <path
     id="path2"
     clip-path="url(#clipPath652)"
     d="m 13.5,0 c -0.666664,0 -0.666664,1 0,1 H 15 v 2.75 h -0.5 c -0.666664,0 -0.666664,1 0,1 H 15 V 7.5 h -1.5 c -0.666664,0 -0.666664,1 0,1 H 15 v 2.75 h -0.5 c -0.666664,0 -0.666664,1 0,1 H 15 V 15 h -1.5 c -0.666664,0 -0.666664,1 0,1 h 2 C 15.776142,16 16,15.776142 16,15.5 V 0.5 C 16,0.22385819 15.776142,0 15.5,0 Z M 7,1 C 6.954875,0.99989297 6.9099559,1.0051201 6.8652344,1.0175781 6.7778895,1.0422071 6.6988943,1.0901452 6.6367188,1.15625 l -0.00195,0.00195 -0.00586,0.00781 -0.023437,0.023437 -0.080078,0.087891 C 6.0834238,1.7682772 5.6586909,2.2744354 5.2519531,2.7949219 4.4829587,3.7779149 3.5381826,5.1194942 2.8671875,6.5214844 2.368191,7.5644767 2,8.6814289 2,9.7324219 2,12.613401 4.2120196,15 7,15 9.7879804,15 12,12.613401 12,9.7324219 12,8.6824289 11.631812,7.5644767 11.132812,6.5214844 10.461819,5.1194942 9.5170413,3.7779149 8.7480469,2.7949219 8.3167805,2.2432974 7.8652997,1.7077747 7.3945312,1.1894531 l -0.023437,-0.023437 -0.00586,-0.00781 h -0.00195 L 7,1.5 7.3632812,1.15625 C 7.2677446,1.0549059 7.135376,1.0003211 7,1 Z M 7,2.2460938 7.015625,2.265625 C 7.2556236,2.5396229 7.5889403,2.9331597 7.9609375,3.4101562 8.993797,4.7808378 9.6682983,6.0162602 10.361328,7.2363281 10.75636,8.1203292 11,8.9774268 11,9.7324219 11,12.116407 9.1819846,14 7,14 4.8180154,14 3,12.116407 3,9.7324219 3,8.9774268 3.2446747,8.1203218 3.6386719,7.2363281 4.141864,6.226682 3.6411814,7.2492124 4.1406289,6.236328 4.7206208,5.1853353 5.4290667,4.1911513 6.0390625,3.4101562 6.4120597,2.9331597 6.7453764,2.5396229 6.984375,2.265625 Z"
     transform="translate(-2)" />
</svg>
