<?xml version="1.0" encoding="UTF-8" standalone="no"?>
<!-- Creator: CorelDRAW 2020 (64-Bit) -->

<svg
   xml:space="preserve"
   width="3.49348in"
   height="3.47489in"
   version="1.1"
   style="clip-rule:evenodd;fill-rule:evenodd;image-rendering:optimizeQuality;shape-rendering:geometricPrecision;text-rendering:geometricPrecision"
   viewBox="0 0 6223.56 6190.44"
   id="svg21"
   xmlns="http://www.w3.org/2000/svg"
   xmlns:svg="http://www.w3.org/2000/svg">
 <defs
   id="defs4"><style
     type="text/css"
     id="style2">
   <![CDATA[
    .fil0 {fill:#253741}
   ]]>
  </style></defs>
 <g
   id="Vrstva_x0020_1">
  <metadata
   id="CorelCorpID_0Corel-Layer" />
  <g
   id="_2588595731232">
   <path
   class="fil0"
   d="m 86.05,6186.42 c 318.13,32.29 247.79,-133.79 274.35,-392.65 l 692.83,-32.08 c -5,-222.66 -40.57,-230.13 -251.55,-232.39 -160.16,-1.71 -288.28,10.22 -451.55,-8.14 l 5.47,-266.28 c 256.95,-14.74 879.78,55.7 1060.19,-61.21 32.76,-289.03 -209.64,-193.26 -783.96,-199.96 l -281.5,-6.64 0.08,-328.9 c 489.72,-53.41 717.39,108.02 689.8,-211.53 -169.76,-114.11 -471.14,-49.09 -679.78,-61.87 l -11.5,-265.35 c 203.26,-24.25 411.4,-15.62 615.42,-13.64 266.32,2.6 480.47,74.37 452.65,-198.66 -161.3,-107.81 -825.88,-58.38 -1054.89,-59.28 l -10.58,-341.6 701.08,-32.01 -2.04,-189.48 C 865,3215.69 579.98,3256.99 351.58,3233.84 l 2.1,-268.12 1075.41,-30.71 -2.69,-197.25 c -277.59,-89.29 -745.96,-14.02 -1072.3,-43.92 l -4.69,-324.9 c 225.87,-26.07 505.41,14.85 686.3,-49.47 62.7,-348.08 -366.3,-187.91 -685.62,-234.78 l 0.97,-253.1 778.79,-15.77 c 203.68,-0.76 206.7,32.09 308.12,-108.29 l -26.85,-114.4 c -173.36,-58.4 -824.58,-30.45 -1060.13,-43.25 l 1.09,-329 692.53,-36.34 7.25,-187.86 C 861.52,921.54 591.73,969.96 355.68,946.13 L 351,679.2 c 331.64,-27.63 798.99,50.49 1071.99,-43.6 l 7.48,-187.23 C 1149.87,358.65 679.2,425.58 352.11,409.25 349.93,255.96 367.6732,25.746209 310.2532,-76.083791 L -28.942843,-194.76824 c -148.209997,250.350005 12.535281,2770.53504 12.485281,3282.32504 -0.06,504.04 -90.797748,2942.164 41.012248,3173.204 z"
   id="path7" />
   <path
   class="fil0"
   d="m 4267.05,3253.48 c 280.88,-107.95 268.24,-224.71 431.97,-397.45 146.42,74.96 352.21,350.01 826.77,264.86 705.75,-126.62 999.17,-1096.27 291.12,-1575.42 -276.35,-187.01 -284.77,-697.14 -951.56,-695.75 -619.01,1.28 -537.71,338.98 -591.71,516.37 -335.26,1101 270.4,547.54 -6.59,1887.39 z"
   id="path9" />
   <path
   class="fil0"
   d="m 2401.19,4390.31 c -500.48,4.5 -345.53,162.01 -175.7,454.22 418.31,719.77 385.53,721.28 796.87,0.28 207.38,-363.49 301.29,-454.05 -221.79,-453.08 C 2334.85,3027.36 2943.18,3375 2771.21,2473.36 2699.74,2098.66 2510.65,1961.65 2666.5,1499.82 2749.56,1253.7 3005,674.44 2494.31,755.6 c -9.63,17.64 -212.65,751.27 -226.27,836.73 -80.47,504.55 77.45,579.75 143.75,951.09 79.69,446.32 -104.95,560.43 -150.64,915.15 -63.51,493.04 115.61,592.97 140.04,931.73 z"
   id="path11" />
   <path
   class="fil0"
   d="m 3749.39,4363.64 c -407.32,156.71 -489.79,-92.22 2.92,779.14 284.43,503.02 341.96,156.29 625.33,-312.06 249.93,-413.11 235.13,-398.82 -236.51,-449.93 -72.93,-313.63 -223.15,-558.09 -161.08,-904.7 67.28,-375.7 211.46,-436.86 154.11,-922.79 -38.08,-322.64 -220.77,-527.14 -155.17,-903.72 36.39,-208.85 344.28,-798.81 46.18,-902.77 -234.02,-81.6 -235.95,144.26 -253.12,283.33 -77.56,628.41 -349.41,339.75 -30,1428.62 125.9,429.18 -44.29,571.88 -113.47,916.83 -101.99,508.72 69.65,611.87 120.81,988.05 z"
   id="path13" />
   <path
   class="fil0"
   d="m 2987.69,2786.56 c 8.94,5.78 23.67,2.45 27.66,15.93 l 97.84,74.4 c 13.47,13.8 69.86,96.15 87.12,121.5 76.67,112.67 105.22,159.58 253.65,208.31 317.15,-547.23 -21.24,-773.96 -45.05,-1290.17 -13.2,-286.44 183.9,-1108.14 281.96,-1279.42 -228.26,-29.73 -467.22,51.61 -601.48,165.3 -156.77,132.73 -88.87,343.57 -181.18,607.61 -237.74,679.97 74.44,727.32 79.48,1376.54 z"
   id="path15" />
   <path
   class="fil0"
   d="m 2196.4,2933.23 c 174.73,-515.85 -256.06,-435.52 -96.37,-1528.99 -256.93,120.31 -477.18,422.59 -431.29,840.34 39.43,359 268.88,567.78 527.66,688.65 z"
   id="path17" />
  </g>
 <path
   style="fill:#000000;stroke-width:0.400949"
   d="M 115.16234,156.17106 C 97.824194,146.72499 89.020642,131.61563 89.931052,112.8671 c 0.584826,-12.0436 5.204461,-22.426071 13.382138,-30.075883 2.51043,-2.34839 8.21589,-6.410462 9.00393,-6.410462 0.46789,0 0.44408,0.569897 -0.26807,6.415182 -0.8814,7.234543 -1.1919,20.076993 -0.62526,25.861203 0.84678,8.64368 1.78598,12.32893 6.69303,26.26215 1.70168,4.83177 1.9256,5.86879 2.08601,9.66071 0.17975,4.24929 -0.52026,9.36861 -1.64759,12.04901 l -0.47581,1.13133 z"
   id="path245"
   transform="scale(18.557065)" /><path
   style="fill:#000000;stroke-width:0.400949"
   d="m 139.73067,289.45898 c -3.33894,-1.72815 -6.65238,-6.38867 -16.65734,-23.42942 -3.81945,-6.5054 -7.63613,-13.00077 -8.48151,-14.43416 -5.68338,-9.63646 -3.85995,-13.14427 7.4971,-14.42241 1.9847,-0.22337 4.46557,-0.4076 5.51305,-0.40941 1.72472,-0.003 1.90451,-0.0912 1.90451,-0.935 0,-2.63024 -1.56856,-9.33244 -3.83775,-16.39812 -3.49705,-10.88895 -3.81502,-12.52957 -4.06242,-20.96078 -0.31807,-10.83985 0.8231,-17.52075 4.8968,-28.66784 3.53689,-9.67823 4.60716,-14.72822 4.60716,-21.73856 0,-8.2753 -1.57637,-16.00898 -5.63255,-27.63338 -3.42464,-9.81449 -4.1297,-13.49701 -4.09642,-21.395535 0.0344,-8.16985 0.70956,-12.496958 3.75343,-24.056931 2.151,-8.169026 7.43568,-27.367801 8.88444,-32.276382 l 0.53253,-1.80427 3.79233,-0.124774 c 6.0334,-0.198509 8.98466,1.098426 11.04237,4.852573 0.99795,1.820708 1.1636,2.602155 1.29253,6.09782 0.20521,5.563563 -0.82137,10.231996 -4.93742,22.453135 -4.33063,12.858282 -4.98603,15.598149 -5.27508,22.052187 -0.30458,6.800667 0.30279,10.041597 3.86971,20.648867 5.0945,15.14994 6.21462,20.93774 6.20773,32.07591 -0.006,8.9909 -0.4499,11.08298 -4.59849,21.65123 -4.21931,10.74842 -4.60897,12.62172 -4.58699,22.05219 0.0147,6.29397 0.194,8.79577 0.91968,12.83036 1.21713,6.76691 3.56251,16.01731 6.15033,24.25741 l 2.14062,6.81613 7.07913,0.46362 c 14.44709,0.94616 16.22008,2.81686 11.54929,12.18581 -2.44077,4.89584 -16.72494,29.54427 -19.31558,33.33049 -3.25611,4.75883 -6.39668,7.55508 -8.47326,7.54428 -0.26129,-0.001 -1.01636,-0.28263 -1.67793,-0.62504 z"
   id="path247"
   transform="scale(18.557065)" /><path
   style="fill:#000000;stroke-width:0.400949"
   d="m 183.56438,171.62909 c -4.75672,-1.97654 -6.27698,-3.44825 -11.70759,-11.33376 -1.70246,-2.47206 -3.58299,-4.93734 -4.17896,-5.4784 -2.00258,-1.81808 -5.67999,-4.66159 -6.02867,-4.66159 -0.19003,0 -0.46657,-2.11951 -0.61452,-4.71003 -0.49385,-8.64666 -1.50696,-13.72588 -5.27935,-26.46791 -2.85666,-9.64898 -3.52335,-13.26469 -3.52934,-19.141137 -0.007,-6.916288 1.03013,-12.422703 4.17253,-22.152067 1.96054,-6.070165 2.54414,-8.810143 3.58632,-16.837831 1.33453,-10.279519 2.64924,-13.710334 6.60495,-17.236003 6.39636,-5.700981 17.10001,-9.329236 27.52201,-9.329236 2.39686,0 4.35792,0.06776 4.35792,0.150584 0,0.08282 -0.43142,1.126092 -0.9587,2.318378 -1.54596,3.49569 -4.55582,13.184239 -6.64426,21.387495 -5.79273,22.753385 -8.21418,40.743696 -6.84034,50.820687 0.64705,4.74608 2.28637,11.38938 4.6253,18.74394 5.21644,16.40263 5.74137,23.2013 2.55954,33.15016 -1.01929,3.18709 -4.89223,11.8063 -5.27485,11.73916 -0.0531,-0.009 -1.12051,-0.44242 -2.37199,-0.96244 z"
   id="path249"
   transform="scale(18.557065)" /><path
   style="fill:#000000;stroke-width:0.400949"
   d="m 212.30241,289.45596 c -1.74418,-0.90714 -2.8429,-2.00886 -5.32303,-5.3376 -2.34725,-3.15039 -17.68183,-29.72434 -20.70204,-35.87545 -3.53703,-7.20369 -3.17706,-7.91122 5.00363,-9.83473 2.96144,-0.69631 6.60232,-1.64771 8.09084,-2.11421 2.43577,-0.76336 2.70604,-0.95286 2.70278,-1.89496 -0.006,-1.86897 -1.91786,-9.54729 -4.18361,-16.80632 -2.86498,-9.17883 -3.4505,-12.03259 -3.71845,-18.12333 -0.40747,-9.26202 1.11599,-17.76214 5.65609,-31.55823 3.69542,-11.22933 4.25434,-13.89637 4.25434,-20.30076 0,-5.85742 -0.58729,-9.31885 -3.07162,-18.10389 -6.87716,-24.31891 -8.5722,-36.132659 -6.39169,-44.547525 0.34239,-1.321315 1.6947,-4.940467 3.00514,-8.042559 3.64418,-8.626541 4.64728,-12.457798 6.04289,-23.080158 1.00545,-7.652741 1.67275,-9.947635 3.47148,-11.93861 1.69668,-1.878029 3.61126,-2.580959 6.19598,-2.274837 4.35181,0.515408 7.56995,2.769573 9.26016,6.486326 0.78044,1.716177 0.90703,2.639593 0.87947,6.415182 -0.0408,5.582927 -0.96265,9.785048 -4.5741,20.84934 -4.06802,12.463046 -4.74221,15.046235 -5.20343,19.937021 -0.74106,7.85826 0.20523,13.50045 4.57304,27.26641 3.1702,9.99146 4.08598,14.16353 4.69064,21.36938 0.89703,10.68998 0.0894,16.26234 -4.24078,29.25871 -3.46716,10.40623 -4.57554,15.2009 -4.9521,21.42194 -0.54952,9.07844 0.35408,14.42477 4.88608,28.90956 1.61929,5.17543 3.26433,10.60671 3.65565,12.0695 l 0.71148,2.65963 4.46383,0.47312 c 10.3643,1.09852 15.39256,2.35059 16.30782,4.06077 1.26555,2.36471 -0.34901,6.42598 -6.9681,17.52761 -2.06559,3.46442 -5.7829,9.9977 -8.26071,14.5184 -7.59521,13.85729 -10.27019,17.24406 -13.61543,17.23833 -0.79387,-0.001 -1.98468,-0.28398 -2.64625,-0.62806 z"
   id="path251"
   transform="scale(18.557065)" /><path
   style="fill:#000000;stroke-width:0.400949"
   d="m 230.30493,174.31291 c 0.44706,-1.46268 2.20764,-11.7298 2.83615,-16.53954 0.91454,-6.99865 1.21765,-17.39157 0.64315,-22.05219 -0.69032,-5.60023 -1.72316,-9.19805 -4.63567,-16.14797 -3.775,-9.00805 -4.02228,-10.10939 -3.98128,-17.7322 0.0299,-5.556613 0.2026,-7.220098 1.29053,-12.429417 0.69081,-3.307828 1.97689,-8.540211 2.85793,-11.627517 0.88105,-3.087306 1.88854,-7.417554 2.23887,-9.622772 0.90076,-5.670127 1.68083,-8.47401 3.10133,-11.147433 1.53523,-2.889336 4.95235,-6.068461 8.11859,-7.553132 9.20074,-4.314301 25.68244,-4.639021 36.42716,-0.717682 4.45363,1.625373 8.01611,3.838924 11.66972,7.250991 3.59959,3.361623 6.15552,6.640058 11.61383,14.896823 4.66472,7.05631 7.17138,9.861995 12.03846,13.474591 7.32203,5.434782 12.12469,10.871965 15.6132,17.676018 3.54911,6.92225 4.84646,12.47611 4.82346,20.64887 -0.0138,4.88176 -0.19172,6.73146 -0.94516,9.82324 -2.29311,9.40997 -6.45389,16.83598 -13.09527,23.37198 -13.30106,13.09001 -34.53241,16.70122 -50.85163,8.64927 -3.15184,-1.55512 -4.74709,-2.58162 -13.31182,-8.56574 l -3.44313,-2.40569 -1.798,1.98404 c -0.98889,1.09122 -2.88805,3.52698 -4.22035,5.41281 -4.7869,6.7757 -7.75992,9.55656 -13.06568,12.22118 -3.51135,1.76344 -4.17613,1.95511 -3.92439,1.13147 z"
   id="path253"
   transform="scale(18.557065)" /><path
   style="fill:#000000;stroke-width:0.400949"
   d="M 0.82452444,335.52805 C -1.8471627,326.08073 -2.802245,296.3242 -2.0688956,245.38069 c 0.2634825,-18.30331 0.6771609,-41.48818 0.9192854,-51.52192 0.52202983,-21.63314 0.2892686,-40.46854 -0.8274493,-66.95846 C -5.5492264,42.164113 -5.6147916,3.650203 -2.2068345,-8.0727573 c 0.343992,-1.1832911 0.666533,-2.1514387 0.7167578,-2.1514387 0.050225,0 4.1498984,1.4196834 9.1103858,3.1548515 l 9.0190679,3.1548509 0.696799,2.0526672 c 1.035963,3.0517913 1.50145,8.1869155 1.50513,16.6041654 l 0.0033,7.525261 23.756219,-0.107707 c 21.422677,-0.09713 24.130372,-0.03724 27.565233,0.609603 2.094958,0.394521 4.46754,0.913839 5.272409,1.154041 l 1.463395,0.436732 -0.213846,4.860191 c -0.11761,2.673104 -0.251543,4.906947 -0.297624,4.964094 -0.04608,0.05714 -1.690938,0.458934 -3.655242,0.892865 -6.252521,1.381232 -14.563769,1.753453 -30.435037,1.363037 C 34.361316,36.245174 25.836141,36.141757 23.35527,36.210644 l -4.510674,0.125253 v 7.340078 7.340082 l 1.503558,0.248521 c 0.826957,0.136687 6.555514,0.251018 12.730126,0.254065 11.570722,0.0057 16.395399,0.365669 20.742715,1.547558 l 2.512318,0.683017 -0.144683,4.800348 c -0.07958,2.640196 -0.208689,4.869323 -0.286919,4.953618 -0.125324,0.135048 -33.122745,2.006561 -35.954506,2.03923 l -1.102609,0.01272 v 9.021349 c 0,4.961742 0.04511,9.046156 0.100237,9.076476 0.05513,0.03031 10.565002,0.192804 23.35527,0.361078 22.35443,0.2941 29.003742,0.648739 32.194581,1.717092 1.335328,0.44709 1.449029,0.629802 2.085555,3.351355 l 0.673233,2.878484 -1.733414,2.185071 c -0.95338,1.201788 -2.322516,2.455386 -3.042528,2.78578 -1.05237,0.482903 -4.218519,0.650199 -16.144217,0.853051 -8.159309,0.138788 -19.93217,0.37002 -26.161912,0.513848 l -11.326805,0.261507 v 6.910065 c 0,5.97935 0.08686,6.9434 0.644876,7.15753 0.354682,0.1361 6.714733,0.24428 14.133447,0.24039 10.503923,-0.005 13.962428,0.12077 15.630078,0.57068 5.001697,1.34938 6.687214,3.90914 6.519517,9.90101 -0.03797,1.35715 -0.151334,1.48143 -1.744657,1.9129 -4.05646,1.0985 -6.486587,1.29091 -20.272343,1.60511 -8.007351,0.1825 -14.68315,0.49224 -14.835107,0.6883 -0.151957,0.19606 -0.224455,4.26046 -0.161105,9.032 l 0.11518,8.67553 2.63675,0.28237 c 1.450212,0.1553 10.961011,0.15443 21.135107,-0.002 13.102719,-0.2014 19.843279,-0.14793 23.109272,0.18331 4.592636,0.46578 9.996573,1.48445 10.476468,1.97485 0.138749,0.14179 0.343746,2.52408 0.455546,5.29396 l 0.203273,5.03617 -26.517221,0.68595 c -14.58447,0.37727 -27.644889,0.78665 -29.023151,0.90974 l -2.50593,0.2238 v 7.38564 7.38564 l 1.102609,0.0287 c 0.606435,0.0158 7.507767,0.18397 15.336293,0.3737 7.828527,0.18974 15.045606,0.53792 16.037954,0.77374 0.992349,0.23582 2.571085,0.63238 3.508303,0.88125 l 1.704032,0.45249 v 4.95975 c 0,3.69748 -0.127554,4.9612 -0.501186,4.96542 -0.275652,0.003 -7.988906,0.36142 -17.140563,0.79623 -9.151657,0.43481 -17.406192,0.79312 -18.34341,0.79623 l -1.704032,0.006 v 2.74261 c 0,1.50843 0.117348,5.71804 0.260774,9.35469 l 0.260774,6.61209 22.092123,-0.0311 c 20.862667,-0.0293 22.338376,0.0159 26.516976,0.81277 2.433672,0.46413 5.275397,1.2201 6.314945,1.67994 l 1.890093,0.83608 -0.0088,2.52848 c -0.0105,3.01672 -0.991026,5.45187 -2.679253,6.65399 -2.351962,1.67475 -3.796536,1.76649 -21.592747,1.37137 -14.884901,-0.33049 -30.112722,-0.10186 -32.473258,0.48755 -0.905746,0.22615 -0.886611,-0.31486 -0.350786,9.91833 l 0.244853,4.67622 2.186415,0.13517 c 1.202529,0.0743 5.561067,0.006 9.68564,-0.15157 4.124573,-0.15771 9.123066,-0.18329 11.107763,-0.0568 7.070244,0.45044 12.756633,2.17635 13.485353,4.09303 0.537805,1.41454 0.01431,5.18058 -0.967642,6.96143 -1.560525,2.8301 -2.024872,2.91222 -16.928148,2.99402 -7.277222,0.0399 -14.539408,0.19066 -16.138191,0.33492 l -2.906879,0.2623 v 8.94759 8.94759 l 4.510674,0.28086 c 2.480871,0.15447 13.802664,0.21737 25.15954,0.13979 18.97152,-0.12961 20.814598,-0.0832 22.689102,0.57131 3.5479,1.2388 4.976369,3.47692 4.976369,7.79698 0,2.02391 -0.05412,2.12679 -1.503559,2.85807 -0.826957,0.41722 -2.676333,1.04609 -4.109725,1.39748 -5.502334,1.34887 -11.134398,1.57914 -31.775196,1.29919 L 18.844617,282.8305 v 7.43714 c 0,4.09043 0.04511,7.46484 0.100237,7.49868 0.05513,0.0338 7.227103,0.16986 15.937717,0.30225 15.309076,0.23269 15.89797,0.27048 17.650505,1.1328 2.166656,1.06607 2.97541,2.31338 3.561934,5.49342 0.395496,2.14433 0.594006,5.36267 0.338561,5.48898 -0.05513,0.0273 -8.356688,0.45017 -18.447905,0.93981 -10.09122,0.48963 -18.458864,1.00143 -18.594767,1.13733 -0.135903,0.13591 -0.395946,3.20716 -0.577874,6.82502 -0.410104,8.15543 -0.832274,9.95483 -2.796373,11.91893 -1.776413,1.77642 -4.025121,2.38437 -8.8192869,2.38437 -1.7533204,0 -3.1953662,0.13533 -3.2045459,0.30072 -0.00918,0.16539 -0.6279553,0.99266 -1.3750573,1.83837 l -1.3583678,1.53767 z"
   id="path255"
   transform="scale(18.557065)" /></g>
</svg>
